<svg width="255" height="47" viewBox="0 0 255 47" fill="none" xmlns="http://www.w3.org/2000/svg">
<path d="M61.3954 11.728V37H55.2394V26.596H45.6634V37H39.5074V11.728H45.6634V21.628H55.2394V11.728H61.3954ZM84.7754 26.632C84.7754 27.208 84.7394 27.808 84.6674 28.432H70.7354C70.8314 29.68 71.2274 30.64 71.9234 31.312C72.6434 31.96 73.5194 32.284 74.5514 32.284C76.0874 32.284 77.1554 31.636 77.7554 30.34H84.3074C83.9714 31.66 83.3594 32.848 82.4714 33.904C81.6074 34.96 80.5154 35.788 79.1954 36.388C77.8754 36.988 76.3994 37.288 74.7674 37.288C72.7994 37.288 71.0474 36.868 69.5114 36.028C67.9754 35.188 66.7754 33.988 65.9114 32.428C65.0474 30.868 64.6154 29.044 64.6154 26.956C64.6154 24.868 65.0354 23.044 65.8754 21.484C66.7394 19.924 67.9394 18.724 69.4754 17.884C71.0114 17.044 72.7754 16.624 74.7674 16.624C76.7114 16.624 78.4394 17.032 79.9514 17.848C81.4634 18.664 82.6394 19.828 83.4794 21.34C84.3434 22.852 84.7754 24.616 84.7754 26.632ZM78.4754 25.012C78.4754 23.956 78.1154 23.116 77.3954 22.492C76.6754 21.868 75.7754 21.556 74.6954 21.556C73.6634 21.556 72.7874 21.856 72.0674 22.456C71.3714 23.056 70.9394 23.908 70.7714 25.012H78.4754ZM86.799 26.92C86.799 24.856 87.183 23.044 87.951 21.484C88.743 19.924 89.811 18.724 91.155 17.884C92.499 17.044 93.999 16.624 95.655 16.624C97.071 16.624 98.307 16.912 99.363 17.488C100.443 18.064 101.271 18.82 101.847 19.756V16.912H108.003V37H101.847V34.156C101.247 35.092 100.407 35.848 99.327 36.424C98.271 37 97.035 37.288 95.619 37.288C93.987 37.288 92.499 36.868 91.155 36.028C89.811 35.164 88.743 33.952 87.951 32.392C87.183 30.808 86.799 28.984 86.799 26.92ZM101.847 26.956C101.847 25.42 101.415 24.208 100.551 23.32C99.711 22.432 98.679 21.988 97.455 21.988C96.231 21.988 95.187 22.432 94.323 23.32C93.483 24.184 93.063 25.384 93.063 26.92C93.063 28.456 93.483 29.68 94.323 30.592C95.187 31.48 96.231 31.924 97.455 31.924C98.679 31.924 99.711 31.48 100.551 30.592C101.415 29.704 101.847 28.492 101.847 26.956ZM118.613 10.36V37H112.457V10.36H118.613ZM134.27 31.78V37H131.138C128.906 37 127.166 36.46 125.918 35.38C124.67 34.276 124.046 32.488 124.046 30.016V22.024H121.598V16.912H124.046V12.016H130.202V16.912H134.234V22.024H130.202V30.088C130.202 30.688 130.346 31.12 130.634 31.384C130.922 31.648 131.402 31.78 132.074 31.78H134.27ZM150.047 16.696C152.351 16.696 154.199 17.464 155.591 19C156.983 20.512 157.679 22.6 157.679 25.264V37H151.559V26.092C151.559 24.748 151.211 23.704 150.515 22.96C149.819 22.216 148.883 21.844 147.707 21.844C146.531 21.844 145.595 22.216 144.899 22.96C144.203 23.704 143.855 24.748 143.855 26.092V37H137.699V10.36H143.855V19.612C144.479 18.724 145.331 18.016 146.411 17.488C147.491 16.96 148.703 16.696 150.047 16.696ZM182.477 16.912L169.877 46.54H163.253L167.861 36.316L159.689 16.912H166.565L171.209 29.476L175.817 16.912H182.477Z" fill="#1D1617"/>
<path d="M193.971 1.9V22.9C193.971 25 194.487 26.6167 195.521 27.75C196.554 28.8833 198.071 29.45 200.071 29.45C202.071 29.45 203.604 28.8833 204.671 27.75C205.737 26.6167 206.271 25 206.271 22.9V1.9H214.821V22.85C214.821 25.9833 214.154 28.6333 212.821 30.8C211.487 32.9667 209.687 34.6 207.421 35.7C205.187 36.8 202.687 37.35 199.921 37.35C197.154 37.35 194.671 36.8167 192.471 35.75C190.304 34.65 188.587 33.0167 187.321 30.85C186.054 28.65 185.421 25.9833 185.421 22.85V1.9H193.971Z" fill="url(#paint0_linear_426_153)"/>
<defs>
<linearGradient id="paint0_linear_426_153" x1="467.5" y1="73.1852" x2="-25.6309" y2="-178.226" gradientUnits="userSpaceOnUse">
<stop stop-color="#CC8FED"/>
<stop offset="1" stop-color="#9DCEFF"/>
</linearGradient>
</defs>
</svg>
