<svg xmlns="http://www.w3.org/2000/svg" version="1.1" xmlns:xlink="http://www.w3.org/1999/xlink" xmlns:svgjs="http://svgjs.com/svgjs" width="1440" height="560" preserveAspectRatio="none" viewBox="0 0 1440 560"><g mask="url(&quot;#SvgjsMask1050&quot;)" fill="none"><path d="M -732.1539941456438,376 C -636.15,342.8 -444.15,217.8 -252.15399414564382,210 C -60.15,202.2 35.85,359.6 227.84600585435618,337 C 419.85,314.4 515.85,96.8 707.8460058543562,97 C 899.85,97.2 1041.42,331.8 1187.8460058543562,338 C 1334.28,344.2 1389.57,170 1440,128" stroke="rgba(197, 139, 242, 1)" stroke-width="2"></path><path d="M -244.3855124026126,159 C -148.39,197 43.61,365 235.6144875973874,349 C 427.61,333 523.61,70.4 715.6144875973874,79 C 907.61,87.6 1003.61,372.8 1195.6144875973873,392 C 1387.61,411.2 1626.74,170.8 1675.6144875973873,175 C 1724.49,179.2 1487.12,365.4 1440,413" stroke="rgba(146, 163, 253, 1)" stroke-width="2"></path><path d="M -732.9667548625048,340 C -636.97,324.8 -444.97,236.4 -252.96675486250473,264 C -60.97,291.6 35.03,509.2 227.03324513749527,478 C 419.03,446.8 515.03,145.4 707.0332451374952,108 C 899.03,70.6 1040.44,298.6 1187.0332451374952,291 C 1333.63,283.4 1389.41,114.2 1440,70" stroke="rgba(146, 163, 253, 1)" stroke-width="2"></path><path d="M -728.8420142413956,354 C -632.84,336.6 -440.84,278.2 -248.8420142413957,267 C -56.84,255.8 39.16,331.2 231.1579857586043,298 C 423.16,264.8 519.16,82.8 711.1579857586044,101 C 903.16,119.2 1045.39,372.6 1191.1579857586044,389 C 1336.93,405.4 1390.23,224.2 1440,183" stroke="rgba(146, 163, 253, 1)" stroke-width="2"></path><path d="M -885.6297496056194,109 C -789.63,171 -597.63,386.2 -405.6297496056194,419 C -213.63,451.8 -117.63,274.4 74.3702503943806,273 C 266.37,271.6 362.37,428.2 554.3702503943806,412 C 746.37,395.8 857.24,174.2 1034.3702503943805,192 C 1211.5,209.8 1358.87,439.2 1440,501" stroke="rgba(197, 139, 242, 1)" stroke-width="2"></path><path d="M -478.07830933111575,257 C -382.08,261.8 -190.08,281 1.9216906688842528,281 C 193.92,281 289.92,227.4 481.92169066888425,257 C 673.92,286.6 769.92,458.2 961.9216906688843,429 C 1153.92,399.8 1346.31,110.6 1441.9216906688844,111 C 1537.54,111.4 1440.38,367 1440,431" stroke="rgba(146, 163, 253, 1)" stroke-width="2"></path></g><defs><mask id="SvgjsMask1050"><rect width="1440" height="560" fill="#ffffff"></rect></mask></defs></svg>