<svg width="63" height="63" viewBox="0 0 63 63" fill="none" xmlns="http://www.w3.org/2000/svg">
<g filter="url(#filter0_d_672_3417)">
<circle opacity="0.3" cx="31.5" cy="27.5" r="27.5" fill="url(#paint0_linear_672_3417)"/>
<mask id="mask0_672_3417" style="mask-type:alpha" maskUnits="userSpaceOnUse" x="4" y="0" width="55" height="55">
<circle cx="31.5" cy="27.5" r="27.5" fill="#C4C4C4"/>
</mask>
<g mask="url(#mask0_672_3417)">
<path d="M45.1553 40.0889C45.615 35.5192 45.1766 31.0651 44.3923 26.5671C43.9353 23.9364 43.7543 21.2672 43.852 18.6007C43.9373 16.7484 43.4617 14.9127 42.4847 13.3229C41.3685 11.4024 39.4657 9.8522 37.1268 10.1229C37.0205 10.1449 36.9108 10.1449 36.8045 10.1229C36.7187 10.0909 36.6387 10.0456 36.5675 9.98872C35.359 9.09328 33.3661 8.82256 31.8827 8.80174C30.055 8.77072 28.2462 9.16741 26.6077 9.95864C23.8399 11.3145 21.7048 13.9291 21.1574 16.9C20.9655 18.1356 20.9416 19.3905 21.0863 20.6322C21.1811 21.6618 21.3233 22.7146 21.1361 23.7234C20.8731 25.1117 20.0152 26.3102 19.4773 27.6222C18.7976 29.2571 18.4694 31.011 18.5129 32.775C18.5674 34.0383 18.9536 37.2453 20.4252 37.7034C22.4086 38.3235 24.5034 38.5202 26.5864 38.7122L32.4585 39.2583C33.4632 39.3508 34.4869 39.4434 35.4656 39.2074C36.1979 39.0315 36.8732 38.6798 37.5984 38.4808C38.4983 38.2353 39.4494 38.2305 40.3519 38.4669" fill="#AA4F7A"/>
<g style="mix-blend-mode:multiply" opacity="0.32">
<g style="mix-blend-mode:multiply" opacity="0.32">
<path d="M27.8142 14.5518L24.0227 15.6739C23.9536 15.69 23.8884 15.7191 23.8308 15.7596C23.7664 15.8188 23.7197 15.8939 23.6957 15.9771C23.0449 17.5905 22.6038 19.2773 22.3829 20.998C22.1033 23.2447 23.1507 25.4659 22.48 27.708L21.7075 30.3804C21.3189 31.6831 20.9279 33.0529 21.2336 34.3764C21.4706 35.4176 22.1033 36.32 22.5677 37.2825C23.2658 38.7313 23.5803 40.328 23.4824 41.9263C23.4824 41.8754 26.563 41.2669 26.845 41.1859C27.9954 40.8647 29.1267 40.4815 30.2337 40.0382C31.1958 39.6541 32.1294 39.1844 33.0939 38.8374C33.6697 38.6338 34.1982 38.4857 34.5963 38.0021C35.6982 36.6624 35.9541 34.3 35.9968 32.6549C36.045 30.7154 35.6711 28.7879 34.8996 27C34.3608 25.7492 33.619 24.5913 32.7029 23.5709" fill="#AA4F7A"/>
</g>
</g>
<path d="M16.1173 39.3972C13.9845 42.8008 12.6788 46.6672 11.9632 50.6006C11.6551 52.3013 11.4632 54.1269 12.2642 55.6655C13.5699 58.2107 17.1647 57.5004 19.4751 56.9936C22.9965 56.2255 27.2951 54.659 29.4989 51.7899" fill="#EA7C99"/>
<path d="M49.1983 57.2898C50.0727 54.8627 49.8807 51.8131 49.6722 49.4229C49.4186 46.371 48.7622 43.5829 47.2764 40.8249C46.1627 38.7609 44.9921 36.4888 42.8001 35.3874C41.7385 34.8529 40.5915 34.5036 39.4825 34.0477C38.1318 33.4878 36.8403 32.2869 37.2147 30.7298C37.4517 29.7001 38.21 28.8579 38.9896 28.1221C39.4356 27.6813 39.8475 27.2087 40.2219 26.7084C40.2434 26.6764 40.2727 26.6502 40.3072 26.632C40.3587 26.6197 40.4129 26.6246 40.4612 26.6459C41.0461 26.8281 41.6725 26.8405 42.2644 26.6815C42.8563 26.5225 43.3882 26.1991 43.7954 25.7505C44.5679 24.9175 44.7764 23.1474 44.0963 22.1849C43.5086 21.3519 42.0418 21.065 41.1295 21.4399C41.4849 19.5703 41.5513 16.9141 40.7527 15.144C40.0086 13.4295 38.0868 12.1384 36.4446 11.3471C34.8024 10.5558 33.0062 10.4054 31.217 10.5997C29.3379 10.8056 27.3853 11.4928 26.2952 12.9991C25.8801 13.6229 25.5607 14.3026 25.3473 15.0168C24.7308 16.8171 24.2982 18.6725 24.0558 20.556C23.852 22.1525 23.7999 24.0452 24.1483 25.6255C24.3418 26.6163 24.8374 27.5268 25.5701 28.2378C26.4824 29.0754 27.2525 29.3438 28.4943 29.515C29.7905 29.6955 31.646 29.9408 32.2858 31.2157C33.428 33.4577 31.5749 34.5221 29.6649 35.1653C25.5345 36.5536 25.6767 40.6606 25.1222 44.1706C24.8852 45.7255 24.1743 46.9819 23.6648 48.4419C23.3936 49.3313 23.2344 50.2497 23.1909 51.1768C23.1459 51.6951 22.9089 52.4239 22.9895 52.9283C23.0748 53.4698 23.5203 53.7474 23.9539 54.1014C25.2881 55.1866 26.7976 56.0589 28.2834 56.9127C29.5725 57.6262 30.9326 58.2099 32.3426 58.655C34.3119 59.3075 36.1341 60.1266 38.1768 60.5639C39.7091 60.9161 41.2678 61.1482 42.838 61.258C45.2338 61.3945 47.4731 60.5037 48.6627 58.4143C48.8739 58.0552 49.0531 57.679 49.1983 57.2898Z" fill="#FF8DA8"/>
<g style="mix-blend-mode:multiply" opacity="0.2">
<g style="mix-blend-mode:multiply" opacity="0.2">
<path d="M35.2502 10.7197C35.5559 12.0664 35.3094 13.4639 35.1506 14.8337C34.9919 16.2034 34.9374 17.6588 35.5772 18.8897C35.9949 19.6433 36.6404 20.2527 37.4258 20.6349C38.2112 21.0171 39.0982 21.1534 39.9659 21.0254C39.5248 18.3755 38.6207 15.8193 37.2928 13.4685" fill="#FF8DA8"/>
</g>
</g>
<path d="M27.3779 15.0492C27.1812 14.2278 25.6409 14.8733 25.2452 15.1649C24.911 15.4078 24.4537 15.9215 24.9726 16.2431C25.4916 16.5647 26.6006 15.9493 27.0153 15.6623C27.2215 15.5119 27.4371 15.2806 27.3779 15.0492Z" fill="#843860"/>
<path d="M33.5227 14.7296C33.7193 13.9083 35.2596 14.5561 35.6554 14.8477C35.9871 15.079 36.4445 15.602 35.9255 15.9236C35.4066 16.2452 34.2976 15.6297 33.8829 15.3428C33.6791 15.1993 33.4634 14.9749 33.5227 14.7296Z" fill="#843860"/>
<path d="M42.857 61.2651C45.2528 61.4016 47.4921 60.5107 48.6817 58.4214C48.8868 58.0594 49.0596 57.6808 49.1983 57.2899C50.0727 54.8628 49.8808 51.8132 49.6722 49.423C49.4187 46.3711 48.7623 43.583 47.2765 40.825C46.2812 38.9739 45.2362 36.9725 43.4613 35.7786C43.402 35.8133 43.3404 35.848 43.2836 35.885C40.0039 37.9281 37.0963 40.9314 33.2455 41.4705C30.9706 41.7875 28.6483 41.172 26.5796 40.191C26.3284 40.0707 26.0654 39.9457 25.7952 39.8277C25.4682 41.216 25.3568 42.7547 25.1317 44.18C24.8947 45.7348 24.1838 46.9912 23.6744 48.4512C23.4031 49.3407 23.2439 50.2591 23.2004 51.1861C23.1554 51.7044 22.9184 52.4333 22.999 52.9377C23.0843 53.4791 23.5298 53.7568 23.9635 54.1108C25.2976 55.196 26.8071 56.0683 28.2929 56.9221C29.5821 57.6355 30.9421 58.2193 32.3522 58.6643C34.3214 59.3168 36.1437 60.1359 38.1863 60.5732C39.7218 60.9252 41.2837 61.1565 42.857 61.2651Z" fill="#F26757"/>
<g style="mix-blend-mode:multiply" opacity="0.25">
<g style="mix-blend-mode:multiply" opacity="0.25">
<path d="M36.0367 26.9925C37.297 26.9925 38.3187 25.9949 38.3187 24.7643C38.3187 23.5337 37.297 22.5361 36.0367 22.5361C34.7763 22.5361 33.7546 23.5337 33.7546 24.7643C33.7546 25.9949 34.7763 26.9925 36.0367 26.9925Z" fill="#FF8DA8"/>
</g>
<g style="mix-blend-mode:multiply" opacity="0.25">
<path d="M25.5886 24.0153C25.5883 23.5309 25.4261 23.0598 25.1268 22.6735C24.8274 22.2873 24.4072 22.0069 23.9298 21.875C23.8321 23.129 23.9046 24.3902 24.1455 25.6257C24.1763 25.7645 24.2142 25.9033 24.2545 26.0398C24.6524 25.863 24.9899 25.5781 25.2264 25.2191C25.463 24.8601 25.5887 24.4422 25.5886 24.0153Z" fill="#FF8DA8"/>
</g>
</g>
<path d="M49.9802 48.9278C49.801 46.9974 49.4036 45.0924 48.7953 43.2474C48.3214 41.7966 47.8901 40.0543 46.7337 38.99C44.9422 37.3403 42.4564 37.7035 40.7242 39.2931C38.4635 41.3755 39.1578 44.0665 40.2194 46.5284C40.9753 48.2822 41.8379 50.0407 41.9872 51.9357C42.0129 52.0967 41.9932 52.2614 41.9303 52.4123C41.7787 52.7016 41.3806 52.7548 41.0464 52.7548C39.3545 52.7548 37.6933 52.336 36.0535 51.9218L31.1435 50.6816C29.7098 50.3207 28.2596 49.9551 26.8662 49.4599C25.6624 51.0687 24.6653 52.8156 23.897 54.6614C26.1174 56.3851 28.4586 58.0534 31.1269 59.0298C35.1032 60.4875 40.1507 62.5838 44.5441 61.693C45.6619 61.4892 46.7049 61.0011 47.5678 60.278C48.4307 59.5549 49.083 58.6223 49.4588 57.5744C50.4849 54.8465 50.2219 51.7645 49.9802 48.9278Z" fill="#FF8DA8"/>
<path d="M38.4159 33.4183C38.0576 33.1558 37.7536 32.8291 37.5201 32.4558C35.9434 32.9702 34.2394 32.9783 32.6575 32.4789C32.6619 32.8966 32.5235 33.3037 32.2642 33.6358C34.2772 34.2712 36.4552 34.1942 38.4159 33.4183Z" fill="#F7BF54"/>
<path d="M34.8398 9.88444C35.7332 10.6734 35.9749 11.8766 36.091 13.0011C36.2688 14.7457 36.2617 16.5389 36.9323 18.1817C37.6029 19.8245 39.1645 21.3262 41.0958 21.384C41.2058 21.3962 41.3168 21.3743 41.4134 21.3215C41.4833 21.2599 41.5328 21.1794 41.5556 21.0902C42.7854 17.8208 41.5556 13.9174 38.6029 11.7285C37.5626 10.965 36.3446 10.405 35.1598 9.85205" fill="#AA4F7A"/>
<g style="mix-blend-mode:multiply" opacity="0.2">
<g style="mix-blend-mode:multiply" opacity="0.2">
<path d="M25.0203 16.1246C26.5155 16.5503 28.0724 16.8465 29.6293 16.747C31.1862 16.6475 32.7478 16.1269 33.8948 15.088C35.0417 14.0491 35.6839 12.4503 35.3616 10.9602C33.3506 12.4199 30.9402 13.2624 28.4374 13.3804" fill="#FF8DA8"/>
</g>
</g>
<path d="M35.4304 10.2454C35.8712 11.4046 35.3356 12.7351 34.4494 13.6374C32.9897 15.1229 30.7835 15.6412 28.6839 15.8286C26.5844 16.016 24.4351 15.9489 22.4185 16.5505C22.9516 13.922 25.1365 11.8095 27.6721 10.7822C30.2076 9.7549 33.0465 9.69011 35.7717 9.98859" fill="#AA4F7A"/>
<path d="M27.916 24.3364C27.9172 24.3202 27.9172 24.304 27.916 24.2878C27.9084 24.2239 27.8879 24.1622 27.8558 24.1061C27.8236 24.0499 27.7804 24.0006 27.7287 23.9608C27.6769 23.921 27.6177 23.8916 27.5542 23.8743C27.4908 23.8569 27.4245 23.852 27.3592 23.8598L22.0392 24.4706C21.9265 24.4841 21.8219 24.5344 21.7423 24.6134C21.6627 24.6924 21.6128 24.7954 21.6008 24.9056L20.6529 33.7698C20.6396 33.8988 20.6789 34.0277 20.7623 34.1286C20.8457 34.2295 20.9665 34.2943 21.0984 34.3089H21.1529C21.2768 34.3084 21.3961 34.2632 21.488 34.1821C21.5798 34.1009 21.6377 33.9895 21.6506 33.8692L22.5629 25.3961L27.281 24.8524C27.3216 24.7141 27.4039 24.591 27.5172 24.499C27.6304 24.4069 27.7694 24.3503 27.916 24.3364Z" fill="#B9B5EC"/>
<path d="M30.9092 21.9603C30.8855 21.9603 30.8428 22.076 30.722 22.2588C30.5458 22.5173 30.2998 22.7232 30.0111 22.8534C29.8208 22.9427 29.6131 22.9908 29.402 22.9945C29.1651 22.9945 29.0371 22.9159 29.0821 22.6799C29.1272 22.4439 29.2764 22.1893 29.3689 21.9117C29.4784 21.6251 29.5725 21.3332 29.6509 21.0371C29.9329 20.0004 30.0418 18.9261 29.9731 17.8556C29.9186 17.0342 29.7741 16.5437 29.7362 16.5506C29.6983 16.5576 29.7622 17.0573 29.7646 17.8625C29.7707 18.9093 29.6369 19.9524 29.3665 20.9653C29.2836 21.2615 29.1982 21.5484 29.0987 21.8191C29.0513 21.9556 28.9968 22.0875 28.9471 22.2171C28.8866 22.3521 28.8421 22.4934 28.8144 22.6382C28.7979 22.7192 28.7979 22.8025 28.8144 22.8835C28.8334 22.9731 28.8816 23.0543 28.9518 23.1149C29.0798 23.2093 29.2406 23.2508 29.3997 23.2305C29.6425 23.2146 29.8787 23.1466 30.0916 23.0316C30.4 22.8715 30.6488 22.6205 30.8025 22.3143C30.921 22.0968 30.9234 21.9649 30.9092 21.9603Z" fill="#C45673"/>
<path d="M28.1669 19.0566C28.1243 19.0566 28.0911 19.4338 27.93 20.0169C27.841 20.3576 27.7229 20.6904 27.5769 21.0118C27.4909 21.1947 27.3844 21.3678 27.2593 21.5278C27.1447 21.6887 26.9777 21.8069 26.7854 21.8633C26.6973 21.891 26.6032 21.8948 26.5131 21.8744C26.423 21.8541 26.3402 21.8102 26.2735 21.7476C26.1431 21.6009 26.044 21.4301 25.9821 21.2455C25.8461 20.922 25.7452 20.5854 25.6811 20.2413C25.5816 19.649 25.6077 19.2672 25.5603 19.2626C25.5129 19.2579 25.4276 19.6397 25.4797 20.2668C25.5103 20.6347 25.59 20.9972 25.7167 21.345C25.7839 21.5682 25.9004 21.7743 26.0579 21.9489C26.1562 22.0493 26.2821 22.12 26.4205 22.1525C26.5582 22.1861 26.7022 22.1861 26.8399 22.1525C27.0981 22.081 27.3231 21.925 27.4773 21.7106C27.6136 21.5263 27.7266 21.3266 27.8138 21.1159C27.9594 20.7764 28.0674 20.4227 28.1361 20.0608C28.2451 19.4454 28.2025 19.0566 28.1669 19.0566Z" fill="#C45673"/>
<path d="M35.7714 18.853C35.7263 18.853 35.7429 19.288 35.6031 19.9567C35.5222 20.3443 35.3941 20.721 35.2216 21.0789C35.1247 21.2793 34.9878 21.4586 34.8187 21.6065C34.6431 21.7536 34.4199 21.8355 34.1884 21.8378C34.0755 21.8286 33.9658 21.7962 33.8666 21.7428C33.7674 21.6894 33.6808 21.6161 33.6126 21.5278C33.4656 21.356 33.348 21.1623 33.2642 20.954C33.1103 20.582 33.0014 20.1937 32.9396 19.7971C32.8329 19.1238 32.878 18.6934 32.8329 18.6888C32.7879 18.6841 32.6789 19.1122 32.7358 19.8225C32.7755 20.2423 32.8736 20.6549 33.0273 21.0488C33.1131 21.2903 33.2405 21.5156 33.404 21.7152C33.4979 21.8323 33.6162 21.9288 33.7509 21.9982C33.8857 22.0675 34.034 22.1083 34.186 22.1178C34.4887 22.12 34.7816 22.0128 35.0083 21.817C35.2105 21.6445 35.3722 21.4314 35.4823 21.1923C35.6524 20.8086 35.7673 20.4036 35.8235 19.9891C35.897 19.2857 35.8045 18.8507 35.7714 18.853Z" fill="#C45673"/>
<path d="M41.0464 25.94C41.0866 25.9169 40.935 25.6902 40.9136 25.2876C40.9043 25.0515 40.9413 24.8159 41.0227 24.5934C41.1238 24.3221 41.2686 24.0682 41.4516 23.8414C41.7884 23.416 42.203 23.0552 42.6743 22.7771C43.0393 22.5619 43.2904 22.4647 43.2786 22.4231C43.2667 22.3814 42.9895 22.4231 42.5795 22.6012C42.0442 22.8438 41.578 23.2108 41.2217 23.6702C41.0181 23.9237 40.8639 24.2115 40.7667 24.5194C40.6883 24.7751 40.6696 25.0447 40.7122 25.3084C40.7928 25.7619 41.025 25.9655 41.0464 25.94Z" fill="#C45673"/>
<path d="M41.3711 25.5998C41.383 25.6322 41.5489 25.6137 41.7456 25.4471C41.8689 25.3353 41.9682 25.2006 42.0373 25.0507C42.1065 24.9009 42.1443 24.7391 42.1484 24.5748C42.1541 24.2538 42.0626 23.9383 41.8854 23.6678C41.7503 23.4665 41.6318 23.3716 41.601 23.3925C41.5702 23.4133 41.6247 23.5498 41.7005 23.7557C41.8053 24.0134 41.8584 24.2883 41.8569 24.5656C41.847 24.8343 41.7564 25.0942 41.5963 25.3129C41.4707 25.4818 41.3522 25.5605 41.3711 25.5998Z" fill="#C45673"/>
<path d="M27.9086 25.1395C27.8068 25.1107 27.7077 25.0736 27.6124 25.0284C27.5152 24.9872 27.4327 24.9187 27.3754 24.8317C27.3673 24.818 27.363 24.8024 27.363 24.7866C27.363 24.7708 27.3673 24.7552 27.3754 24.7415C27.4007 24.7 27.4367 24.6657 27.4797 24.642C27.5294 24.6119 27.5958 24.5772 27.6645 24.5448L27.7688 24.4985L27.8494 24.4661C27.8795 24.446 27.9066 24.4219 27.9299 24.3944C27.9465 24.3736 27.9702 24.3389 27.9939 24.3019C27.9932 24.207 27.954 24.1163 27.8849 24.0497L27.8138 24.015L27.783 23.9918L27.7285 23.9548C27.6938 23.9304 27.6606 23.9042 27.629 23.8761C27.5659 23.8212 27.508 23.7608 27.456 23.6956C27.4072 23.634 27.3628 23.569 27.3233 23.5013C27.2996 23.4411 27.3067 23.4504 27.3233 23.4296C27.3701 23.3981 27.4252 23.3804 27.4821 23.3787C27.5531 23.3752 27.6243 23.3752 27.6953 23.3787L28.11 23.3925C28.6195 23.3925 28.937 23.3925 28.9394 23.3509C28.9418 23.3092 28.6314 23.2537 28.1266 23.1936L27.7119 23.1473H27.5982C27.5532 23.1449 27.5081 23.1449 27.4631 23.1473C27.3535 23.1469 27.2466 23.1801 27.1574 23.2421C27.0963 23.2887 27.0563 23.3568 27.046 23.4319C27.0376 23.4994 27.05 23.5679 27.0816 23.6285C27.1244 23.7171 27.1768 23.8009 27.238 23.8784C27.2989 23.9612 27.3671 24.0386 27.4418 24.1098C27.4797 24.1422 27.52 24.1769 27.5626 24.207L27.6266 24.251L27.655 24.2695L27.546 24.3227C27.4749 24.3597 27.4062 24.3967 27.3304 24.4453C27.2483 24.4999 27.1828 24.575 27.1408 24.6628C27.1206 24.7122 27.1124 24.7655 27.1169 24.8185C27.1214 24.8715 27.1385 24.9228 27.1669 24.9682C27.2543 25.0887 27.3776 25.18 27.52 25.2297C27.5791 25.2538 27.6401 25.2732 27.7024 25.2875L27.8588 25.3222C28.2569 25.4032 28.501 25.4379 28.5105 25.4032C28.52 25.3685 28.2878 25.269 27.9086 25.1395Z" fill="#C45673"/>
<path d="M27.7427 34.4224L15.2971 35.1535L17.1929 50.9197C17.2132 51.0859 17.2985 51.2379 17.431 51.344C17.5635 51.4501 17.7329 51.5021 17.9038 51.4889L25.8446 51.0053C26.0041 50.9958 26.1547 50.9304 26.2687 50.8212C26.3828 50.7119 26.4527 50.5662 26.4655 50.4107L27.7427 34.4224Z" fill="#F9A353"/>
<path d="M16.8402 48.037L26.8616 45.2928L27.5583 36.7063L15.8662 39.9063L16.8402 48.037Z" fill="#F7BF54"/>
<g style="mix-blend-mode:multiply" opacity="0.14">
<g style="mix-blend-mode:multiply" opacity="0.14">
<path d="M15.2971 35.1535L17.1929 50.9197C17.2132 51.0859 17.2985 51.2379 17.431 51.344C17.5635 51.4501 17.7329 51.502 17.9038 51.4889L24.2238 51.1048C22.5351 48.713 21.2153 46.0921 20.3066 43.3258C19.4223 40.6137 19.0357 37.7703 19.1645 34.9268L15.2971 35.1535Z" fill="#F9A353"/>
</g>
</g>
<path d="M27.7541 32.9976L14.6153 33.7868C14.3227 33.8044 14.1 34.0502 14.118 34.3359L14.1681 35.1304C14.1861 35.4161 14.4379 35.6334 14.7305 35.6159L27.8693 34.8267C28.1619 34.8091 28.3845 34.5633 28.3665 34.2776L28.3165 33.4831C28.2985 33.1974 28.0467 32.9801 27.7541 32.9976Z" fill="#F7BF54"/>
<g style="mix-blend-mode:multiply" opacity="0.2">
<g style="mix-blend-mode:multiply" opacity="0.2">
<path d="M49.9803 48.9274C49.8011 46.997 49.4038 45.092 48.7955 43.247C48.3215 41.7962 47.8903 40.054 46.7339 38.9896C45.4234 37.7841 43.7457 37.6569 42.2599 38.2955L39.2788 43.4552C39.4533 44.5161 39.7721 45.5495 40.2267 46.528C40.7646 47.7751 41.3547 49.0269 41.7054 50.3272C43.3417 50.5978 44.9964 50.7486 46.6557 50.7784C47.8171 50.8134 48.9791 50.7359 50.1249 50.547C50.0704 49.9871 50.0254 49.4572 49.9803 48.9274Z" fill="#FF8DA8"/>
</g>
</g>
<path d="M39.9467 48.8695C43.1339 49.5637 47.0557 49.3994 50.1363 47.9255C50.0463 47.0578 49.0013 44.0291 48.9041 43.7121C48.2098 41.4191 47.7192 39.0105 45.8709 37.4648C44.2121 36.0581 41.9514 35.7087 40.2026 37.1548C39.8119 37.4939 39.4861 37.8982 39.2405 38.3487C37.9443 40.5931 38.468 43.8185 39.167 46.1925C39.423 47.0841 39.6828 47.9764 39.9467 48.8695Z" fill="#DB5449"/>
<path d="M43.0962 33.3463C42.5512 32.164 43.0346 31.0187 42.345 29.8756C41.9801 29.2764 41.3166 28.7187 41.0843 28.0431C40.8758 27.4485 40.8829 26.6548 40.8261 26.0139C40.6675 24.2682 40.802 22.5089 41.2242 20.8055C41.2539 20.7153 41.2644 20.62 41.255 20.5256C41.2165 20.3971 41.1408 20.2822 41.037 20.1947C40.3217 19.4745 39.6575 18.7076 39.0488 17.8994L39.6459 21.0138C39.582 21.6524 39.4967 22.2841 39.3948 22.9319C39.223 24.1714 38.8711 25.3805 38.3497 26.5229C37.1388 29.0103 36.3734 32.2496 37.6128 34.8873C38.1222 35.9679 39.1459 36.8703 40.3569 36.9929C41.8948 37.1456 43.4517 36.0674 44.9185 36.5301C44.2195 35.5214 43.6098 34.4563 43.0962 33.3463Z" fill="#AA4F7A"/>
<path d="M27.3994 56.9632C25.2667 55.8619 22.1008 53.7957 22.4657 51.0353C22.5587 50.1779 22.8049 49.3431 23.1932 48.5688C23.5226 47.9788 23.9041 47.4489 23.57 46.7339C23.3496 46.2712 22.8046 45.9426 22.4183 45.6187C21.9328 45.2338 21.5101 44.7789 21.1647 44.2697C21.1396 44.2403 21.1223 44.2053 21.1144 44.1677C21.1066 44.1301 21.1084 44.0913 21.1197 44.0546C21.3377 43.6774 22.8946 44.4965 23.1411 44.6492C23.8305 45.0696 24.3977 45.656 24.788 46.3522C24.7453 46.2735 24.8141 45.9704 24.8022 45.8616C24.7718 45.7018 24.7209 45.5463 24.6506 45.3989C24.5495 45.0764 24.426 44.7609 24.2809 44.4549C23.9397 43.8116 23.4539 43.2563 23.051 42.6524C22.9474 42.515 22.8762 42.357 22.8425 42.1896C22.8265 42.1071 22.8354 42.0218 22.8683 41.9441C22.9011 41.8665 22.9564 41.7998 23.0273 41.7523C23.2643 41.6205 23.551 41.8102 23.7524 41.9837C24.1908 42.3678 24.7382 42.7982 25.0036 43.3257C25.3164 43.9458 25.4918 44.6839 25.7146 45.3387C25.9515 45.3873 25.6648 43.8024 25.615 43.6589C25.4515 43.1799 25.4065 42.7473 25.115 42.3285C24.7359 41.787 24.243 41.2456 24.2406 40.5885C24.2328 40.5183 24.243 40.4472 24.2703 40.3818C24.2976 40.3163 24.3411 40.2586 24.397 40.2137C24.5913 40.0957 24.8307 40.2669 24.9823 40.4335C26.0605 41.6297 26.4349 43.2239 26.6221 44.7765L27.243 42.4071C27.2928 42.222 27.4113 41.9907 27.6032 42.03C27.6645 42.0482 27.7195 42.0826 27.762 42.1295C28.2975 42.6732 28.1079 43.4692 27.9705 44.124C27.8117 44.8829 27.6909 45.6511 27.589 46.4193C27.4989 47.0926 27.352 47.7613 27.3259 48.4415C27.2951 49.0524 27.6577 49.4341 28.198 49.7349C28.4922 49.8717 28.7983 49.9824 29.1127 50.0658C29.4421 50.1792 29.7407 50.3689 30.0795 50.4707" fill="#FF8DA8"/>
<path d="M45.132 19.6767C43.132 19.045 40.7575 18.9987 38.6793 19.008H38.6604C38.3665 16.8168 36.7646 15.1347 34.8452 15.1347C33.0371 15.1347 31.5276 16.6201 31.1011 18.6169C30.7998 18.3432 30.4036 18.1911 29.992 18.1911C29.5805 18.1911 29.1843 18.3432 28.883 18.6169C28.5228 16.5345 26.9612 14.9426 25.0915 14.9426C22.9588 14.9426 21.2266 17.0042 21.2266 19.5378C21.2266 22.0714 22.9588 24.133 25.0915 24.133C27.2242 24.133 28.9565 22.0714 28.9565 19.5378C28.9565 19.4661 28.9565 19.3967 28.9565 19.325C29.0417 19.1275 29.1852 18.9592 29.3687 18.8418C29.5523 18.7243 29.7675 18.6628 29.987 18.6653C30.2064 18.6678 30.4202 18.7341 30.6009 18.8557C30.7816 18.9773 30.9211 19.1487 31.0015 19.3481C31.0015 19.4754 30.9849 19.6026 30.9849 19.7322C30.9849 22.2774 32.7196 24.3274 34.8499 24.3274C36.9803 24.3274 38.7149 22.2635 38.7149 19.7299C38.7149 19.6489 38.7149 19.5725 38.7149 19.4985C40.2439 19.4902 41.7714 19.5969 43.2836 19.8178C43.8642 19.9034 44.4401 20.0191 45.0135 20.1487C46.2149 20.4217 46.4353 21.5624 46.4922 22.5689C46.5112 22.8813 47.0135 22.8836 46.9922 22.5689C46.8903 21.2269 46.5349 20.114 45.132 19.6767ZM25.0963 23.543C23.2953 23.543 21.8332 21.7452 21.8332 19.5355C21.8332 17.3258 23.2953 15.528 25.0963 15.528C26.8972 15.528 28.3593 17.3258 28.3593 19.5355C28.3593 21.7452 26.8949 23.543 25.0963 23.543ZM34.8452 23.7374C33.0466 23.7374 31.5821 21.9396 31.5821 19.7299C31.5821 17.5202 33.0466 15.7224 34.8452 15.7224C36.6438 15.7224 38.1106 17.5202 38.1106 19.7299C38.1106 21.9396 36.6461 23.7374 34.8452 23.7374Z" fill="#F7BF54"/>
</g>
</g>
<defs>
<filter id="filter0_d_672_3417" x="0" y="0" width="63" height="63" filterUnits="userSpaceOnUse" color-interpolation-filters="sRGB">
<feFlood flood-opacity="0" result="BackgroundImageFix"/>
<feColorMatrix in="SourceAlpha" type="matrix" values="0 0 0 0 0 0 0 0 0 0 0 0 0 0 0 0 0 0 127 0" result="hardAlpha"/>
<feOffset dy="4"/>
<feGaussianBlur stdDeviation="2"/>
<feComposite in2="hardAlpha" operator="out"/>
<feColorMatrix type="matrix" values="0 0 0 0 0 0 0 0 0 0 0 0 0 0 0 0 0 0 0.25 0"/>
<feBlend mode="normal" in2="BackgroundImageFix" result="effect1_dropShadow_672_3417"/>
<feBlend mode="normal" in="SourceGraphic" in2="effect1_dropShadow_672_3417" result="shape"/>
</filter>
<linearGradient id="paint0_linear_672_3417" x1="59" y1="55" x2="-14.3036" y2="49.3277" gradientUnits="userSpaceOnUse">
<stop stop-color="#92A3FD"/>
<stop offset="1" stop-color="#9DCEFF"/>
</linearGradient>
</defs>
</svg>
